<svg viewBox="0 0 800 500" xmlns="http://www.w3.org/2000/svg">
  <style>
    @keyframes pulse {
      0% { r: 8; opacity: 0.7; }
      50% { r: 10; opacity: 1; }
      100% { r: 8; opacity: 0.7; }
    }
    
    @keyframes float {
      0% { transform: translateY(0px); }
      50% { transform: translateY(-10px); }
      100% { transform: translateY(0px); }
    }
    
    @keyframes rotate {
      from { transform: rotate(0deg); }
      to { transform: rotate(360deg); }
    }
    
    @keyframes dash {
      to {
        stroke-dashoffset: -1000;
      }
    }
    
    @keyframes fadeIn {
      from { opacity: 0; }
      to { opacity: 1; }
    }
    
    @keyframes colorShift {
      0% { fill: #ff5e62; }
      50% { fill: #ff9966; }
      100% { fill: #ff5e62; }
    }
    
    .cluster {
      animation: float 5s ease-in-out infinite;
    }
    
    .rotate-element {
      transform-origin: center;
      animation: rotate 30s linear infinite;
    }
    
    .connection-line {
      stroke-dasharray: 10;
      animation: dash 30s linear infinite;
    }
    
    .data-point {
      animation: pulse 3s infinite alternate;
    }
    
    .label {
      animation: fadeIn 2s;
      font-family: Arial, sans-serif;
      font-weight: bold;
    }
    
    .color-shift {
      animation: colorShift 8s infinite;
    }
    
    /* Different animation timing for variety */
    .delay-1 { animation-delay: 0.5s; }
    .delay-2 { animation-delay: 1s; }
    .delay-3 { animation-delay: 1.5s; }
    .delay-4 { animation-delay: 2s; }
    .delay-5 { animation-delay: 2.5s; }
  </style>
  
  <!-- Background with gradient -->
  <defs>
    <linearGradient id="bg-gradient" x1="0%" y1="0%" x2="100%" y2="100%">
      <stop offset="0%" stop-color="#1a2a6c" />
      <stop offset="50%" stop-color="#b21f1f" />
      <stop offset="100%" stop-color="#fdbb2d" />
    </linearGradient>
    
    <radialGradient id="cluster-gradient-1" cx="50%" cy="50%" r="50%" fx="50%" fy="50%">
      <stop offset="0%" stop-color="#ff9966" stop-opacity="0.8" />
      <stop offset="100%" stop-color="#ff5e62" stop-opacity="0.4" />
    </radialGradient>
    
    <radialGradient id="cluster-gradient-2" cx="50%" cy="50%" r="50%" fx="50%" fy="50%">
      <stop offset="0%" stop-color="#4facfe" stop-opacity="0.8" />
      <stop offset="100%" stop-color="#00f2fe" stop-opacity="0.4" />
    </radialGradient>
    
    <radialGradient id="cluster-gradient-3" cx="50%" cy="50%" r="50%" fx="50%" fy="50%">
      <stop offset="0%" stop-color="#43e97b" stop-opacity="0.8" />
      <stop offset="100%" stop-color="#38f9d7" stop-opacity="0.4" />
    </radialGradient>
  </defs>
  
  <rect width="100%" height="100%" fill="url(#bg-gradient)" />
  
  <!-- Decorative Network Background -->
  <g class="rotate-element" opacity="0.15">
    <path d="M400,250 L600,150 L500,50 L300,100 L200,50 L100,150 L200,250 L100,350 L200,450 L400,400 L600,450 L700,350 L600,250 L700,150 L600,50 z" 
          fill="none" stroke="white" stroke-width="1" />
    
    <path d="M400,250 L500,50 M400,250 L200,50 M400,250 L100,150 M400,250 L100,350 M400,250 L200,450 M400,250 L400,400 M400,250 L600,450 M400,250 L700,350 M400,250 L700,150 M400,250 L600,50" 
          fill="none" stroke="white" stroke-width="1" class="connection-line" />
  </g>
  
  <!-- Cluster 1 -->
  <g class="cluster delay-1" transform="translate(250, 150)">
    <circle cx="0" cy="0" r="70" fill="url(#cluster-gradient-1)" />
    
    <!-- Data points in cluster 1 -->
    <circle class="data-point delay-1" cx="-30" cy="-20" r="8" fill="#ffcc66" />
    <circle class="data-point delay-2" cx="-10" cy="30" r="8" fill="#ffcc66" />
    <circle class="data-point delay-3" cx="15" cy="-40" r="8" fill="#ffcc66" />
    <circle class="data-point delay-4" cx="25" cy="10" r="8" fill="#ffcc66" />
    <circle class="data-point delay-5" cx="-40" cy="10" r="8" fill="#ffcc66" />
    <circle class="data-point delay-1" cx="0" cy="-10" r="8" fill="#ffcc66" />
    <circle class="data-point delay-3" cx="40" cy="-15" r="8" fill="#ffcc66" />
    
    <text class="label" x="0" y="0" font-size="16" fill="white" text-anchor="middle">Cluster A</text>
    <text class="label" x="0" y="20" font-size="12" fill="white" text-anchor="middle">Auditory Processing</text>
  </g>
  
  <!-- Cluster 2 -->
  <g class="cluster delay-2" transform="translate(500, 200)">
    <circle cx="0" cy="0" r="80" fill="url(#cluster-gradient-2)" />
    
    <!-- Data points in cluster 2 -->
    <circle class="data-point delay-5" cx="-40" cy="-30" r="8" fill="#66ccff" />
    <circle class="data-point delay-4" cx="-20" cy="40" r="8" fill="#66ccff" />
    <circle class="data-point delay-3" cx="30" cy="-20" r="8" fill="#66ccff" />
    <circle class="data-point delay-2" cx="10" cy="20" r="8" fill="#66ccff" />
    <circle class="data-point delay-1" cx="-30" cy="10" r="8" fill="#66ccff" />
    <circle class="data-point delay-2" cx="5" cy="-40" r="8" fill="#66ccff" />
    <circle class="data-point delay-4" cx="40" cy="30" r="8" fill="#66ccff" />
    <circle class="data-point delay-3" cx="-10" cy="-10" r="8" fill="#66ccff" />
    <circle class="data-point delay-5" cx="20" cy="-5" r="8" fill="#66ccff" />
    
    <text class="label" x="0" y="0" font-size="16" fill="white" text-anchor="middle">Cluster B</text>
    <text class="label" x="0" y="20" font-size="12" fill="white" text-anchor="middle">Neural Connectivity</text>
  </g>
  
  <!-- Cluster 3 -->
  <g class="cluster delay-3" transform="translate(350, 350)">
    <circle cx="0" cy="0" r="60" fill="url(#cluster-gradient-3)" />
    
    <!-- Data points in cluster 3 -->
    <circle class="data-point delay-2" cx="-25" cy="-10" r="8" fill="#66ffcc" />
    <circle class="data-point delay-3" cx="0" cy="30" r="8" fill="#66ffcc" />
    <circle class="data-point delay-4" cx="25" cy="-15" r="8" fill="#66ffcc" />
    <circle class="data-point delay-1" cx="-10" cy="15" r="8" fill="#66ffcc" />
    <circle class="data-point delay-5" cx="15" cy="10" r="8" fill="#66ffcc" />
    
    <text class="label" x="0" y="0" font-size="16" fill="white" text-anchor="middle">Cluster C</text>
    <text class="label" x="0" y="20" font-size="12" fill="white" text-anchor="middle">Microbiome Patterns</text>
  </g>
  
  <!-- Connecting Lines Between Clusters -->
  <g>
    <line x1="250" y1="150" x2="500" y2="200" stroke="#ffffff" stroke-width="2" opacity="0.6" stroke-dasharray="5,5" class="connection-line" />
    <line x1="500" y1="200" x2="350" y2="350" stroke="#ffffff" stroke-width="2" opacity="0.6" stroke-dasharray="5,5" class="connection-line" />
    <line x1="350" y1="350" x2="250" y2="150" stroke="#ffffff" stroke-width="2" opacity="0.6" stroke-dasharray="5,5" class="connection-line" />
  </g>
  
  <!-- Title -->
  <text x="400" y="50" font-size="24" fill="white" text-anchor="middle" class="label">
    Brain-Ear Axis Cluster Analysis
  </text>
  
  <!-- Decorative Elements -->
  <g class="rotate-element" opacity="0.3" transform="translate(400, 250)">
    <circle cx="0" cy="0" r="180" fill="none" stroke="white" stroke-width="1" stroke-dasharray="5,5" />
    <circle cx="0" cy="0" r="220" fill="none" stroke="white" stroke-width="1" stroke-dasharray="8,8" />
  </g>
  
  <!-- Legend -->
  <g transform="translate(650, 430)">
    <rect x="0" y="0" width="120" height="60" rx="5" fill="rgba(0,0,0,0.5)" />
    <circle cx="15" cy="15" r="8" fill="#ffcc66" class="data-point" />
    <text x="30" y="20" font-size="12" fill="white" class="label">Auditory</text>
    <circle cx="15" cy="35" r="8" fill="#66ccff" class="data-point" />
    <text x="30" y="40" font-size="12" fill="white" class="label">Neural</text>
    <circle cx="15" cy="55" r="8" fill="#66ffcc" class="data-point" />
    <text x="30" y="60" font-size="12" fill="white" class="label">Microbiome</text>
  </g>
</svg>