<?xml version="1.0" encoding="UTF-8" standalone="no"?>
<svg width="800" height="400" viewBox="0 0 800 400" xmlns="http://www.w3.org/2000/svg">
  <!-- Background -->
  <rect x="0" y="0" width="800" height="400" rx="10" ry="10" fill="#f8f9fa" />
  
  <!-- Title -->
  <text x="400" y="30" font-family="Arial" font-size="20" font-weight="bold" text-anchor="middle" fill="#333">Multi-Omics Integration Framework</text>
  
  <!-- Data sources section -->
  <g transform="translate(100, 100)">
    <!-- Microbiome -->
    <rect x="0" y="0" width="120" height="60" rx="10" ry="10" fill="#88d8b0" stroke="#333" stroke-width="1">
      <animate attributeName="opacity" values="0.8;1;0.8" dur="3s" repeatCount="indefinite" />
    </rect>
    <text x="60" y="35" font-family="Arial" font-size="14" font-weight="bold" text-anchor="middle" fill="#333">Microbiome</text>
    
    <!-- Neural -->
    <rect x="0" y="80" width="120" height="60" rx="10" ry="10" fill="#ff7e79" stroke="#333" stroke-width="1">
      <animate attributeName="opacity" values="0.8;1;0.8" dur="2.5s" repeatCount="indefinite" />
    </rect>
    <text x="60" y="115" font-family="Arial" font-size="14" font-weight="bold" text-anchor="middle" fill="#333">Neural</text>
    
    <!-- Connectivity -->
    <rect x="0" y="160" width="120" height="60" rx="10" ry="10" fill="#6ebef4" stroke="#333" stroke-width="1">
      <animate attributeName="opacity" values="0.8;1;0.8" dur="4s" repeatCount="indefinite" />
    </rect>
    <text x="60" y="195" font-family="Arial" font-size="14" font-weight="bold" text-anchor="middle" fill="#333">Connectivity</text>
  </g>
  
  <!-- Integration section -->
  <g transform="translate(350, 130)">
    <!-- Integration box -->
    <rect x="-70" y="-30" width="140" height="160" rx="15" ry="15" fill="#4a6fa5" stroke="#333" stroke-width="1.5">
      <animate attributeName="width" values="140;145;140" dur="5s" repeatCount="indefinite" />
      <animate attributeName="height" values="160;165;160" dur="5s" repeatCount="indefinite" />
    </rect>
    
    <!-- Gears to represent processing -->
    <g fill="#d9dee6" stroke="#333" stroke-width="0.5">
      <!-- Gear 1 -->
      <path d="M-30,-10 L-25,-25 L-15,-20 L-15,-10 L-25,0 L-15,10 L-15,20 L-25,25 L-30,10 L-40,10 L-50,0 L-40,-10 Z">
        <animateTransform attributeName="transform" attributeType="XML" type="rotate" from="0" to="360" dur="10s" repeatCount="indefinite" />
      </path>
      
      <!-- Gear 2 -->
      <path d="M20,50 L25,35 L35,40 L35,50 L25,60 L35,70 L35,80 L25,85 L20,70 L10,70 L0,60 L10,50 Z">
        <animateTransform attributeName="transform" attributeType="XML" type="rotate" from="0" to="-360" dur="7s" repeatCount="indefinite" />
      </path>
    </g>
    
    <text x="0" y="0" font-family="Arial" font-size="16" font-weight="bold" text-anchor="middle" fill="#fff">MOFA</text>
    <text x="0" y="20" font-family="Arial" font-size="12" text-anchor="middle" fill="#fff">Integration</text>
    <text x="0" y="60" font-family="Arial" font-size="16" font-weight="bold" text-anchor="middle" fill="#fff">Factor</text>
    <text x="0" y="80" font-family="Arial" font-size="12" text-anchor="middle" fill="#fff">Analysis</text>
  </g>
  
  <!-- Arrows from data to integration -->
  <g stroke="#555" stroke-width="2" fill="none" marker-end="url(#arrowhead)">
    <path d="M220,100 L280,140" stroke-dasharray="5,5">
      <animate attributeName="stroke-dashoffset" values="10;0" dur="2s" repeatCount="indefinite" />
    </path>
    <path d="M220,160 L280,160">
      <animate attributeName="stroke-dashoffset" values="10;0" dur="2.5s" repeatCount="indefinite" />
    </path>
    <path d="M220,220 L280,180" stroke-dasharray="5,5">
      <animate attributeName="stroke-dashoffset" values="10;0" dur="3s" repeatCount="indefinite" />
    </path>
  </g>
  
  <!-- Output section -->
  <g transform="translate(600, 160)">
    <!-- Factors box -->
    <rect x="0" y="-60" width="120" height="40" rx="5" ry="5" fill="#ffeead" stroke="#333" stroke-width="1">
      <animate attributeName="opacity" values="0.8;1;0.8" dur="3s" repeatCount="indefinite" />
    </rect>
    <text x="60" y="-35" font-family="Arial" font-size="14" font-weight="bold" text-anchor="middle" fill="#333">Latent Factors</text>
    
    <!-- PCoA box -->
    <rect x="0" y="0" width="120" height="40" rx="5" ry="5" fill="#ffeead" stroke="#333" stroke-width="1">
      <animate attributeName="opacity" values="0.8;1;0.8" dur="3.5s" repeatCount="indefinite" />
    </rect>
    <text x="60" y="25" font-family="Arial" font-size="14" font-weight="bold" text-anchor="middle" fill="#333">Visualization</text>
    
    <!-- Biomarkers box -->
    <rect x="0" y="60" width="120" height="40" rx="5" ry="5" fill="#ffeead" stroke="#333" stroke-width="1">
      <animate attributeName="opacity" values="0.8;1;0.8" dur="4s" repeatCount="indefinite" />
    </rect>
    <text x="60" y="85" font-family="Arial" font-size="14" font-weight="bold" text-anchor="middle" fill="#333">Biomarkers</text>
  </g>
  
  <!-- Arrows from integration to output -->
  <g stroke="#555" stroke-width="2" fill="none" marker-end="url(#arrowhead)">
    <path d="M420,100 L600,120" stroke-dasharray="5,5">
      <animate attributeName="stroke-dashoffset" values="10;0" dur="2s" repeatCount="indefinite" />
    </path>
    <path d="M420,160 L600,160">
      <animate attributeName="stroke-dashoffset" values="10;0" dur="2.5s" repeatCount="indefinite" />
    </path>
    <path d="M420,220 L600,200" stroke-dasharray="5,5">
      <animate attributeName="stroke-dashoffset" values="10;0" dur="3s" repeatCount="indefinite" />
    </path>
  </g>
  
  <!-- Arrow marker definition -->
  <defs>
    <marker id="arrowhead" markerWidth="10" markerHeight="7" refX="10" refY="3.5" orient="auto">
      <polygon points="0 0, 10 3.5, 0 7" fill="#555" />
    </marker>
  </defs>
  
  <!-- Data flow visualization -->
  <g transform="translate(400, 340)">
    <rect x="-300" y="0" width="600" height="40" rx="5" ry="5" fill="rgba(255,255,255,0.7)" stroke="#333" stroke-width="1" />
    
    <text x="0" y="25" font-family="Arial" font-size="14" font-weight="bold" text-anchor="middle" fill="#333">
      Data Integration → Pattern Discovery → Biological Insights
    </text>
  </g>
</svg>
